<?xml version="1.0" encoding="UTF-8"?>
<svg xmlns="http://www.w3.org/2000/svg" width="32" height="32" viewBox="0 0 32 32" fill="none">
  <path d="M30.6803 22.3633C28.2192 28.0342 22.5733 32 15.999 32C15.7314 32 15.4658 31.9939 15.2023 31.9797C6.73449 31.5641 0 24.5672 0 15.9949C0 14.5615 0.192587 13.1726 0.547354 11.8507C0.908203 11.4655 1.41501 11.2242 1.97859 11.2242C3.07127 11.2242 3.96123 12.1224 3.96123 13.2233V13.866C3.96123 13.8762 3.95717 13.8883 3.95717 13.8965V18.7645C3.95717 20.7778 5.5891 22.416 7.59404 22.416C9.59898 22.416 11.2309 20.7778 11.2309 18.7645V14.8372C11.2309 14.823 11.2269 14.8129 11.2269 14.7987V13.2213C11.2269 12.1204 12.1168 11.2222 13.2095 11.2222C14.3022 11.2222 15.1921 12.1204 15.1921 13.2213V18.7624C15.1921 20.7758 16.822 22.414 18.827 22.414C20.8319 22.414 22.4639 20.7758 22.4639 18.7624V14.8352C22.4639 14.821 22.4598 14.8109 22.4598 14.7967V13.2193C22.4598 12.1183 23.3498 11.2202 24.4424 11.2202C25.5351 11.2202 26.4251 12.1183 26.4251 13.2193V13.349C26.4251 13.349 26.4251 13.3673 26.4251 13.3774V18.7604C26.4251 20.6136 27.8077 22.1504 29.5896 22.3815C29.7416 22.4018 29.8998 22.4119 30.0579 22.4119C30.2728 22.4119 30.4816 22.3896 30.6884 22.3552" fill="#073C8C"/>
  <path d="M31.9997 15.999C31.9997 17.4486 31.8031 18.8476 31.4442 20.1837C31.4442 20.1837 31.4422 20.1878 31.4422 20.1898C31.4402 20.1898 31.4382 20.1939 31.4361 20.1939C31.0773 20.5487 30.5908 20.7677 30.0515 20.7677C28.9588 20.7677 28.0689 19.8695 28.0689 18.7685V17.619C28.0689 17.6068 28.0689 17.5987 28.0689 17.5906V13.2274C28.0689 11.2141 26.439 9.57384 24.434 9.57384C22.4291 9.57384 20.7972 11.2141 20.7972 13.2274V17.6879C20.7972 17.698 20.8012 17.7102 20.8012 17.7224V18.7685C20.8012 19.8695 19.9113 20.7677 18.8186 20.7677C17.7259 20.7677 16.8359 19.8695 16.8359 18.7685V13.2274C16.8359 11.2141 15.206 9.57384 13.2011 9.57384C11.1962 9.57384 9.56423 11.2141 9.56423 13.2274V17.6879C9.56423 17.698 9.56828 17.7122 9.56828 17.7224V18.7685C9.56828 19.8695 8.67832 20.7677 7.58564 20.7677C6.49296 20.7677 5.603 19.8695 5.603 18.7685V18.1258C5.603 18.1157 5.60705 18.1056 5.60705 18.0954V13.2294C5.60705 11.2161 3.97715 9.57993 1.97221 9.57587C1.74718 9.57587 1.52824 9.59817 1.31335 9.63872C3.77443 3.96579 9.42029 0 15.9967 0C16.0838 0 16.1669 0 16.2541 0C24.9713 0.13787 31.9977 7.2483 31.9977 15.999" fill="#55C6C2"/>
</svg>
